# xmcd
#
# Track frame offsets:
#	150
#	25957
#	44535
#	54941
#	82073
#	98207
#	122622
#	145531
#	162115
#
# Disc length: 2470 seconds
#
# Revision: 1
# Processed by: cddbd v1.5.2PL0 Copyright (c) Steve Scherf et al.
# Submitted via: audiograbber 1.83.01
#
DISCID=6d09a409
DTITLE=Supuration - Cu3e
DYEAR=2013
DGENRE=Metal
TTITLE0=Synergy awakes
TTITLE1=Introversion
TTITLE2=The Disenthrall
TTITLE3=Consummate
TTITLE4=The Incongruents
TTITLE5=The Delegation
TTITLE6=Datadance
TTITLE7=The Flight
TTITLE8=The Climax
EXTD=
EXTT0=
EXTT1=
EXTT2=
EXTT3=
EXTT4=
EXTT5=
EXTT6=
EXTT7=
EXTT8=
PLAYORDER=
